<svg class="main-svg" xmlns="http://www.w3.org/2000/svg" xmlns:xlink="http://www.w3.org/1999/xlink" width="1000" height="500" style="" viewBox="0 0 1000 500"><rect x="0" y="0" width="1000" height="500" style="fill: rgb(255, 255, 255); fill-opacity: 1;"/><defs id="defs-0700b1"><g class="clips"><clipPath id="clip0700b1xyplot" class="plotclip"><rect width="840" height="360"/></clipPath><clipPath class="axesclip" id="clip0700b1x"><rect x="80" y="0" width="840" height="500"/></clipPath><clipPath class="axesclip" id="clip0700b1y"><rect x="0" y="60" width="1000" height="360"/></clipPath><clipPath class="axesclip" id="clip0700b1xy"><rect x="80" y="60" width="840" height="360"/></clipPath></g><g class="gradients"/><g class="patterns"/></defs><g class="bglayer"/><g class="layer-below"><g class="imagelayer"/><g class="shapelayer"/></g><g class="cartesianlayer"><g class="subplot xy"><g class="layer-subplot"><g class="shapelayer"/><g class="imagelayer"/></g><g class="gridlayer"><g class="x"><path class="xgrid crisp" transform="translate(163.24,0)" d="M0,60v360" style="stroke: rgb(235, 240, 248); stroke-opacity: 1; stroke-width: 1px;"/><path class="xgrid crisp" transform="translate(247.33,0)" d="M0,60v360" style="stroke: rgb(235, 240, 248); stroke-opacity: 1; stroke-width: 1px;"/><path class="xgrid crisp" transform="translate(331.40999999999997,0)" d="M0,60v360" style="stroke: rgb(235, 240, 248); stroke-opacity: 1; stroke-width: 1px;"/><path class="xgrid crisp" transform="translate(415.5,0)" d="M0,60v360" style="stroke: rgb(235, 240, 248); stroke-opacity: 1; stroke-width: 1px;"/><path class="xgrid crisp" transform="translate(499.58,0)" d="M0,60v360" style="stroke: rgb(235, 240, 248); stroke-opacity: 1; stroke-width: 1px;"/><path class="xgrid crisp" transform="translate(583.6600000000001,0)" d="M0,60v360" style="stroke: rgb(235, 240, 248); stroke-opacity: 1; stroke-width: 1px;"/><path class="xgrid crisp" transform="translate(667.75,0)" d="M0,60v360" style="stroke: rgb(235, 240, 248); stroke-opacity: 1; stroke-width: 1px;"/><path class="xgrid crisp" transform="translate(751.83,0)" d="M0,60v360" style="stroke: rgb(235, 240, 248); stroke-opacity: 1; stroke-width: 1px;"/><path class="xgrid crisp" transform="translate(835.92,0)" d="M0,60v360" style="stroke: rgb(235, 240, 248); stroke-opacity: 1; stroke-width: 1px;"/></g><g class="y"><path class="ygrid crisp" transform="translate(0,402)" d="M80,0h840" style="stroke: rgb(235, 240, 248); stroke-opacity: 1; stroke-width: 1px;"/><path class="ygrid crisp" transform="translate(0,78)" d="M80,0h840" style="stroke: rgb(235, 240, 248); stroke-opacity: 1; stroke-width: 1px;"/></g></g><g class="zerolinelayer"/><path class="xlines-below"/><path class="ylines-below"/><g class="overlines-below"/><g class="xaxislayer-below"/><g class="yaxislayer-below"/><g class="overaxes-below"/><g class="plot" transform="translate(80,60)" clip-path="url(#clip0700b1xyplot)"><g class="scatterlayer mlayer"><g class="trace scatter trace9783c0" style="stroke-miterlimit: 2; opacity: 1;"><g class="fills"/><g class="errorbars"/><g class="lines"><path class="js-line" d="M0,342L23.54,342L24.38,18L25.23,342L26.07,342L36.16,342L37,18L37.84,342L38.68,342L43.72,342L44.56,18L45.41,342L46.25,342L54.65,342L55.5,18L56.34,18L57.18,342L61.38,342L62.22,18L63.06,342L63.9,18L64.74,342L65.59,342L67.27,342L68.11,18L68.95,342L69.79,342L71.47,342L72.31,18L73.15,342L73.99,18L74.83,18L75.68,342L76.52,342L77.36,18L78.2,342L79.04,342L85.77,342L86.61,18L87.45,342L88.29,342L93.33,342L94.17,18L95.02,342L95.86,342L103.42,342L104.26,18L105.11,342L105.95,18L106.79,342L107.63,342L111.83,342L112.67,18L113.51,342L114.35,342L117.72,342L118.56,18L119.4,342L120.24,342L121.08,18L121.92,342L123.6,342L124.44,18L125.29,342L126.13,342L128.65,342L129.49,18L130.33,342L131.17,18L132.01,18L132.85,342L133.69,18L134.53,342L135.38,18L136.22,342L137.9,342L138.74,18L139.58,342L140.42,342L142.1,342L142.94,18L143.78,342L144.62,342L146.31,342L147.15,18L147.99,342L148.83,18L149.67,342L150.51,18L151.35,342L152.19,342L153.03,342L153.87,18L154.71,342L155.56,342L156.4,18L157.24,342L158.08,342L158.92,18L159.76,342L160.6,18L161.44,342L162.28,342L164.8,342L165.65,18L166.49,342L167.33,342L168.17,18L169.01,342L169.85,18L170.69,342L171.53,18L172.37,342L173.21,18L174.05,342L174.89,342L175.74,18L176.58,18L177.42,342L179.1,342L179.94,18L180.78,18L181.62,342L182.46,18L183.3,18L184.14,342L184.98,18L185.83,342L186.67,342L190.03,342L190.87,18L191.71,342L192.55,18L193.39,18L194.23,342L196.76,342L197.6,18L199.28,18L200.12,342L201.8,342L202.64,18L203.48,342L204.32,342L205.17,342L206.01,18L207.69,18L208.53,342L211.89,342L212.73,18L213.57,18L214.41,342L215.26,342L216.1,18L216.94,342L217.78,342L218.62,18L219.46,342L222.82,342L223.66,18L225.35,18L226.19,342L240.48,342L241.32,18L243,18L243.84,342L245.53,342L246.37,18L248.05,18L248.89,342L249.73,342L250.57,18L251.41,18L252.25,342L256.46,342L257.3,18L258.14,18L258.98,342L259.82,342L260.66,18L261.5,342L262.34,342L263.18,18L264.02,18L264.86,342L265.71,342L267.39,342L268.23,18L269.07,18L269.91,342L277.48,342L278.32,18L279.16,342L280,342L282.52,342L283.36,18L286.73,18L287.57,342L288.41,18L289.25,342L290.09,18L290.93,18L291.77,342L292.61,342L298.5,342L299.34,18L300.18,342L301.02,342L304.38,342L305.23,18L306.07,342L306.91,342L307.75,18L308.59,18L309.43,342L310.27,342L311.11,18L311.95,18L312.79,342L313.63,342L314.47,18L315.32,342L317.84,342L318.68,18L319.52,342L320.36,18L321.2,342L322.04,342L322.88,342L323.72,18L324.56,18L325.41,342L329.61,342L330.45,18L331.29,18L332.13,342L344.74,342L345.59,18L346.43,342L347.27,342L350.63,342L351.47,18L352.31,18L353.15,342L358.2,342L359.04,18L359.88,18L360.72,342L361.56,18L362.4,18L363.24,18L364.08,342L364.92,342L365.77,18L366.61,18L367.45,342L368.29,342L369.13,18L369.97,18L370.81,342L371.65,342L372.49,18L373.33,342L374.17,342L376.7,342L377.54,18L378.38,342L379.22,342L380.06,18L380.9,18L381.74,18L382.58,342L385.95,342L386.79,18L387.63,18L388.47,342L392.67,342L393.51,18L394.35,342L395.2,18L396.04,342L396.88,18L397.72,342L398.56,342L399.4,342L400.24,18L401.08,18L401.92,342L407.81,342L408.65,18L409.49,342L410.33,342L411.17,18L412.01,342L412.85,18L413.69,342L416.22,342L417.06,18L417.9,342L418.74,18L419.58,18L420.42,342L422.1,342L422.94,18L423.78,342L424.62,342L427.99,342L428.83,18L429.67,342L430.51,18L431.35,342L432.19,18L435.56,18L436.4,342L439.76,342L440.6,18L441.44,342L442.28,18L443.12,342L443.96,342L445.65,342L446.49,18L447.33,342L448.17,18L449.01,342L449.85,342L451.53,342L452.37,18L453.21,342L454.05,342L454.89,18L455.74,18L457.42,18L458.26,342L459.1,18L459.94,342L460.78,18L461.62,342L462.46,18L463.3,18L464.14,342L464.98,18L465.83,18L466.67,342L468.35,342L469.19,18L470.03,18L470.87,342L475.92,342L476.76,18L477.6,18L478.44,342L480.12,342L480.96,18L481.8,18L482.64,342L483.48,342L484.32,18L485.17,342L486.01,342L486.85,342L487.69,18L488.53,18L489.37,342L491.05,342L491.89,18L492.73,342L493.57,342L496.1,342L496.94,18L497.78,342L498.62,342L499.46,342L500.3,18L501.98,18L502.82,342L503.66,18L504.5,342L505.35,342L506.19,18L507.03,342L507.87,18L508.71,342L509.55,18L512.07,18L512.91,342L513.75,18L514.59,342L515.44,342L516.28,18L517.12,18L517.96,342L518.8,18L519.64,342L520.48,342L521.32,18L522.16,18L523,342L523.84,342L524.68,18L526.37,18L527.21,342L529.73,342L530.57,18L531.41,342L532.25,18L533.09,18L533.93,342L534.77,18L535.62,342L542.34,342L543.18,18L544.02,342L544.86,18L545.71,342L546.55,342L547.39,342L548.23,18L549.07,18L549.91,342L550.75,18L551.59,342L552.43,18L553.27,18L554.11,342L554.95,342L555.8,342L556.64,18L557.48,342L558.32,342L560.84,342L561.68,18L562.52,18L563.36,342L564.2,342L565.05,18L565.89,342L566.73,18L567.57,342L568.41,342L569.25,342L570.09,18L570.93,342L571.77,342L578.5,342L579.34,18L580.18,342L581.02,18L581.86,342L582.7,342L583.54,18L584.38,342L585.23,18L586.07,18L586.91,342L587.75,18L588.59,18L589.43,342L591.11,342L591.95,18L592.79,342L593.63,342L594.47,18L595.32,18L596.16,18L597,342L598.68,342L599.52,18L600.36,18L601.2,342L602.88,342L603.72,18L604.56,342L605.41,18L607.93,18L608.77,342L609.61,18L610.45,342L621.38,342L622.22,18L623.06,18L623.9,342L624.74,342L625.59,18L626.43,18L627.27,342L628.11,18L628.95,342L629.79,342L630.63,18L631.47,342L632.31,342L639.04,342L639.88,18L640.72,342L641.56,342L642.4,18L643.24,342L644.08,342L644.92,18L646.61,18L647.45,342L648.29,342L649.13,18L650.81,18L651.65,342L652.49,342L653.33,18L654.17,342L655.02,18L657.54,18L658.38,342L659.22,18L660.06,342L660.9,18L661.74,342L665.95,342L666.79,18L667.63,342L668.47,342L670.15,342L670.99,18L672.67,18L673.51,342L676.88,342L677.72,18L678.56,18L679.4,342L680.24,342L681.08,18L681.92,342L682.76,18L683.6,342L684.44,18L685.29,342L686.13,342L687.81,342L688.65,18L689.49,342L690.33,342L692.85,342L693.69,18L696.22,18L697.06,342L697.9,18L698.74,342L699.58,342L700.42,18L701.26,342L702.1,342L702.94,18L703.78,18L704.62,342L705.47,18L706.31,18L707.15,342L707.99,18L708.83,342L711.35,342L712.19,18L713.03,18L713.87,342L714.71,342L715.56,18L716.4,342L717.24,342L720.6,342L721.44,18L722.28,342L723.12,342L724.8,342L725.65,18L726.49,18L727.33,342L737.42,342L738.26,18L739.1,18L739.94,342L740.78,342L741.62,18L742.46,342L743.3,342L750.87,342L751.71,18L752.55,342L753.39,342L757.6,342L758.44,18L759.28,342L760.12,342L761.8,342L762.64,18L764.32,18L765.17,342L767.69,342L768.53,18L769.37,342L770.21,18L771.05,342L771.89,342L772.73,18L773.57,342L776.1,342L776.94,18L777.78,18L778.62,342L782.82,342L783.66,18L784.5,342L785.35,342L786.19,342L787.03,18L787.87,342L788.71,18L789.55,342L790.39,342L791.23,18L792.07,18L792.91,342L793.75,18L794.59,342L795.44,342L796.28,18L797.12,342L799.64,342L800.48,18L801.32,342L802.16,18L803,342L803.84,18L804.68,342L805.53,342L807.21,342L808.05,18L808.89,342L809.73,18L810.57,342L811.41,342L812.25,342L813.09,18L813.93,342L814.77,18L815.62,342L816.46,342L818.14,342L818.98,18L819.82,18L820.66,342L821.5,342L822.34,18L823.18,18L824.02,342L825.71,342L826.55,18L827.39,342L828.23,18L829.91,18L830.75,342L831.59,342L832.43,18L833.27,342L834.11,18L834.95,342L835.8,342L838.32,342L839.16,18L840,18" style="vector-effect: non-scaling-stroke; fill: none; stroke: rgb(99, 110, 250); stroke-opacity: 1; stroke-width: 2px; opacity: 1;"/></g><g class="points"/><g class="text"/></g></g></g><g class="overplot"/><path class="xlines-above crisp" d="M0,0" style="fill: none;"/><path class="ylines-above crisp" d="M0,0" style="fill: none;"/><g class="overlines-above"/><g class="xaxislayer-above"><g class="xtick"><text text-anchor="middle" x="0" y="433" transform="translate(163.24,0)" style="font-family: 'Open Sans', verdana, arial, sans-serif; font-size: 12px; fill: rgb(42, 63, 95); fill-opacity: 1; white-space: pre; opacity: 1;">100</text></g><g class="xtick"><text text-anchor="middle" x="0" y="433" style="font-family: 'Open Sans', verdana, arial, sans-serif; font-size: 12px; fill: rgb(42, 63, 95); fill-opacity: 1; white-space: pre; opacity: 1;" transform="translate(247.33,0)">200</text></g><g class="xtick"><text text-anchor="middle" x="0" y="433" style="font-family: 'Open Sans', verdana, arial, sans-serif; font-size: 12px; fill: rgb(42, 63, 95); fill-opacity: 1; white-space: pre; opacity: 1;" transform="translate(331.40999999999997,0)">300</text></g><g class="xtick"><text text-anchor="middle" x="0" y="433" style="font-family: 'Open Sans', verdana, arial, sans-serif; font-size: 12px; fill: rgb(42, 63, 95); fill-opacity: 1; white-space: pre; opacity: 1;" transform="translate(415.5,0)">400</text></g><g class="xtick"><text text-anchor="middle" x="0" y="433" style="font-family: 'Open Sans', verdana, arial, sans-serif; font-size: 12px; fill: rgb(42, 63, 95); fill-opacity: 1; white-space: pre; opacity: 1;" transform="translate(499.58,0)">500</text></g><g class="xtick"><text text-anchor="middle" x="0" y="433" style="font-family: 'Open Sans', verdana, arial, sans-serif; font-size: 12px; fill: rgb(42, 63, 95); fill-opacity: 1; white-space: pre; opacity: 1;" transform="translate(583.6600000000001,0)">600</text></g><g class="xtick"><text text-anchor="middle" x="0" y="433" style="font-family: 'Open Sans', verdana, arial, sans-serif; font-size: 12px; fill: rgb(42, 63, 95); fill-opacity: 1; white-space: pre; opacity: 1;" transform="translate(667.75,0)">700</text></g><g class="xtick"><text text-anchor="middle" x="0" y="433" style="font-family: 'Open Sans', verdana, arial, sans-serif; font-size: 12px; fill: rgb(42, 63, 95); fill-opacity: 1; white-space: pre; opacity: 1;" transform="translate(751.83,0)">800</text></g><g class="xtick"><text text-anchor="middle" x="0" y="433" style="font-family: 'Open Sans', verdana, arial, sans-serif; font-size: 12px; fill: rgb(42, 63, 95); fill-opacity: 1; white-space: pre; opacity: 1;" transform="translate(835.92,0)">900</text></g><g class="xtick"><text text-anchor="middle" x="0" y="433" style="font-family: 'Open Sans', verdana, arial, sans-serif; font-size: 12px; fill: rgb(42, 63, 95); fill-opacity: 1; white-space: pre; opacity: 1;" transform="translate(920,0)">1000</text></g></g><g class="yaxislayer-above"><g class="ytick"><text text-anchor="end" x="79" y="4.199999999999999" transform="translate(0,402)" style="font-family: 'Open Sans', verdana, arial, sans-serif; font-size: 12px; fill: rgb(42, 63, 95); fill-opacity: 1; white-space: pre; opacity: 1;">No</text></g><g class="ytick"><text text-anchor="end" x="79" y="4.199999999999999" transform="translate(0,78)" style="font-family: 'Open Sans', verdana, arial, sans-serif; font-size: 12px; fill: rgb(42, 63, 95); fill-opacity: 1; white-space: pre; opacity: 1;">Yes</text></g></g><g class="overaxes-above"/></g></g><g class="polarlayer"/><g class="smithlayer"/><g class="ternarylayer"/><g class="geolayer"/><g class="funnelarealayer"/><g class="pielayer"/><g class="iciclelayer"/><g class="treemaplayer"/><g class="sunburstlayer"/><g class="glimages"/><defs id="topdefs-0700b1"><g class="clips"/></defs><g class="layer-above"><g class="imagelayer"/><g class="shapelayer"/></g><g class="infolayer"><g class="g-gtitle"/><g class="g-xtitle"><text class="xtitle" x="500" y="460.3" text-anchor="middle" style="font-family: 'Open Sans', verdana, arial, sans-serif; font-size: 14px; fill: rgb(42, 63, 95); opacity: 1; font-weight: normal; white-space: pre;">Rank</text></g><g class="g-ytitle"><text class="ytitle" transform="rotate(-90,33.403125,240)" x="33.403125" y="240" text-anchor="middle" style="font-family: 'Open Sans', verdana, arial, sans-serif; font-size: 14px; fill: rgb(42, 63, 95); opacity: 1; font-weight: normal; white-space: pre;">Ranked2021</text></g></g></svg>