<svg class="main-svg" xmlns="http://www.w3.org/2000/svg" xmlns:xlink="http://www.w3.org/1999/xlink" width="1000" height="500" style="" viewBox="0 0 1000 500"><rect x="0" y="0" width="1000" height="500" style="fill: rgb(255, 255, 255); fill-opacity: 1;"/><defs id="defs-8e14be"><g class="clips"><clipPath id="clip8e14bexyplot" class="plotclip"><rect width="840" height="360"/></clipPath><clipPath class="axesclip" id="clip8e14bex"><rect x="80" y="0" width="840" height="500"/></clipPath><clipPath class="axesclip" id="clip8e14bey"><rect x="0" y="60" width="1000" height="360"/></clipPath><clipPath class="axesclip" id="clip8e14bexy"><rect x="80" y="60" width="840" height="360"/></clipPath></g><g class="gradients"/><g class="patterns"/></defs><g class="bglayer"/><g class="layer-below"><g class="imagelayer"/><g class="shapelayer"/></g><g class="cartesianlayer"><g class="subplot xy"><g class="layer-subplot"><g class="shapelayer"/><g class="imagelayer"/></g><g class="gridlayer"><g class="x"><path class="xgrid crisp" transform="translate(163.24,0)" d="M0,60v360" style="stroke: rgb(235, 240, 248); stroke-opacity: 1; stroke-width: 1px;"/><path class="xgrid crisp" transform="translate(247.33,0)" d="M0,60v360" style="stroke: rgb(235, 240, 248); stroke-opacity: 1; stroke-width: 1px;"/><path class="xgrid crisp" transform="translate(331.40999999999997,0)" d="M0,60v360" style="stroke: rgb(235, 240, 248); stroke-opacity: 1; stroke-width: 1px;"/><path class="xgrid crisp" transform="translate(415.5,0)" d="M0,60v360" style="stroke: rgb(235, 240, 248); stroke-opacity: 1; stroke-width: 1px;"/><path class="xgrid crisp" transform="translate(499.58,0)" d="M0,60v360" style="stroke: rgb(235, 240, 248); stroke-opacity: 1; stroke-width: 1px;"/><path class="xgrid crisp" transform="translate(583.6600000000001,0)" d="M0,60v360" style="stroke: rgb(235, 240, 248); stroke-opacity: 1; stroke-width: 1px;"/><path class="xgrid crisp" transform="translate(667.75,0)" d="M0,60v360" style="stroke: rgb(235, 240, 248); stroke-opacity: 1; stroke-width: 1px;"/><path class="xgrid crisp" transform="translate(751.83,0)" d="M0,60v360" style="stroke: rgb(235, 240, 248); stroke-opacity: 1; stroke-width: 1px;"/><path class="xgrid crisp" transform="translate(835.92,0)" d="M0,60v360" style="stroke: rgb(235, 240, 248); stroke-opacity: 1; stroke-width: 1px;"/></g><g class="y"><path class="ygrid crisp" transform="translate(0,402)" d="M80,0h840" style="stroke: rgb(235, 240, 248); stroke-opacity: 1; stroke-width: 1px;"/><path class="ygrid crisp" transform="translate(0,78)" d="M80,0h840" style="stroke: rgb(235, 240, 248); stroke-opacity: 1; stroke-width: 1px;"/></g></g><g class="zerolinelayer"/><path class="xlines-below"/><path class="ylines-below"/><g class="overlines-below"/><g class="xaxislayer-below"/><g class="yaxislayer-below"/><g class="overaxes-below"/><g class="plot" transform="translate(80,60)" clip-path="url(#clip8e14bexyplot)"><g class="scatterlayer mlayer"><g class="trace scatter traceb2237e" style="stroke-miterlimit: 2; opacity: 1;"><g class="fills"/><g class="errorbars"/><g class="lines"><path class="js-line" d="M0,342L54.65,342L55.5,18L56.34,18L57.18,342L61.38,342L62.22,18L63.06,342L63.9,342L111.83,342L112.67,18L113.51,342L114.35,342L117.72,342L118.56,18L119.4,342L120.24,18L121.08,342L121.92,342L123.6,342L124.44,18L125.29,342L126.13,342L130.33,342L131.17,18L132.01,342L132.85,342L158.08,342L158.92,18L159.76,342L160.6,18L161.44,342L162.28,342L164.8,342L165.65,18L166.49,342L167.33,342L168.17,18L169.01,342L169.85,18L170.69,342L171.53,18L172.37,342L173.21,18L174.05,342L174.89,342L175.74,18L176.58,342L177.42,342L179.94,342L180.78,18L181.62,342L182.46,342L184.14,342L184.98,18L185.83,342L186.67,342L192.55,342L193.39,18L194.23,342L195.08,342L196.76,342L197.6,18L198.44,342L199.28,342L206.01,342L206.85,18L207.69,342L208.53,342L211.05,342L211.89,18L212.73,342L213.57,18L214.41,342L215.26,342L216.1,18L216.94,342L217.78,342L218.62,18L219.46,342L220.3,342L242.16,342L243,18L243.84,342L244.68,342L246.37,342L247.21,18L248.05,342L248.89,342L249.73,342L250.57,18L251.41,342L252.25,342L257.3,342L258.14,18L258.98,342L259.82,342L285.05,342L285.89,18L286.73,342L287.57,342L288.41,18L289.25,342L290.09,18L290.93,342L301.86,342L302.7,18L303.54,342L304.38,342L305.23,18L306.07,342L307.75,342L308.59,18L309.43,342L310.27,342L311.11,18L311.95,342L317.84,342L318.68,18L319.52,342L320.36,18L321.2,342L322.04,342L327.93,342L328.77,18L331.29,18L332.13,342L344.74,342L345.59,18L346.43,342L347.27,342L348.11,18L348.95,342L350.63,342L351.47,18L352.31,342L353.15,342L358.2,342L359.04,18L359.88,18L360.72,342L362.4,342L363.24,18L364.08,342L364.92,342L365.77,18L366.61,342L369.13,342L369.97,18L370.81,342L371.65,342L379.22,342L380.06,18L381.74,18L382.58,342L392.67,342L393.51,18L394.35,342L395.2,18L396.04,342L396.88,342L407.81,342L408.65,18L409.49,342L410.33,342L412.01,342L412.85,18L413.69,342L414.53,342L416.22,342L417.06,18L417.9,342L418.74,342L427.99,342L428.83,18L429.67,342L430.51,342L434.71,342L435.56,18L436.4,342L437.24,342L441.44,342L442.28,18L443.12,342L443.96,342L445.65,342L446.49,18L447.33,342L448.17,18L449.01,342L449.85,342L454.89,342L455.74,18L456.58,342L457.42,18L458.26,342L459.1,18L459.94,342L460.78,18L461.62,342L462.46,18L463.3,342L464.14,342L469.19,342L470.03,18L470.87,342L471.71,342L475.92,342L476.76,18L477.6,18L478.44,342L480.12,342L480.96,18L481.8,342L482.64,342L485.17,342L486.01,18L486.85,342L487.69,18L488.53,18L489.37,342L490.21,342L491.05,18L491.89,18L492.73,342L496.1,342L496.94,18L497.78,342L498.62,342L507.87,342L508.71,18L510.39,18L511.23,342L512.91,342L513.75,18L514.59,342L515.44,342L516.28,342L517.12,18L517.96,342L518.8,342L525.53,342L526.37,18L527.21,342L528.05,342L532.25,342L533.09,18L534.77,18L535.62,342L537.3,342L538.14,18L538.98,342L539.82,342L550.75,342L551.59,18L552.43,342L553.27,342L563.36,342L564.2,18L565.05,342L565.89,342L566.73,18L567.57,342L569.25,342L570.09,18L570.93,342L571.77,342L578.5,342L579.34,18L580.18,342L581.02,342L582.7,342L583.54,18L584.38,342L585.23,342L593.63,342L594.47,18L595.32,18L596.16,342L598.68,342L599.52,18L600.36,342L601.2,342L604.56,342L605.41,18L606.25,342L607.09,18L607.93,342L608.77,342L625.59,342L626.43,18L627.27,342L628.11,342L629.79,342L630.63,18L631.47,342L632.31,342L644.92,342L645.77,18L646.61,342L647.45,342L649.13,342L649.97,18L650.81,342L651.65,342L652.49,342L653.33,18L654.17,18L655.02,342L655.86,342L656.7,18L657.54,342L658.38,342L659.22,342L660.06,18L660.9,342L661.74,342L665.95,342L666.79,18L667.63,342L668.47,342L670.15,342L670.99,18L671.83,342L672.67,342L675.2,342L676.04,18L676.88,342L677.72,342L678.56,18L679.4,342L681.92,342L682.76,18L683.6,342L684.44,342L692.85,342L693.69,18L694.53,342L695.38,342L696.22,18L697.06,342L697.9,18L698.74,342L699.58,342L700.42,18L701.26,342L702.1,342L702.94,18L703.78,18L704.62,342L705.47,342L708.83,342L709.67,18L710.51,342L711.35,342L714.71,342L715.56,18L716.4,342L717.24,342L724.8,342L725.65,18L726.49,342L727.33,342L736.58,342L737.42,18L738.26,342L739.1,18L739.94,342L740.78,342L744.98,342L745.83,18L746.67,342L747.51,342L748.35,342L749.19,18L750.03,342L750.87,342L753.39,342L754.23,18L755.08,342L755.92,342L756.76,342L757.6,18L758.44,18L759.28,342L760.96,342L761.8,18L762.64,342L763.48,342L766.85,342L767.69,18L768.53,18L769.37,342L770.21,18L771.05,342L771.89,342L772.73,18L773.57,342L774.41,342L781.98,342L782.82,18L783.66,342L784.5,342L789.55,342L790.39,18L791.23,18L792.07,342L792.91,18L793.75,342L794.59,342L795.44,18L796.28,342L797.12,342L797.96,342L798.8,18L799.64,342L800.48,18L801.32,342L802.16,342L803,342L803.84,18L804.68,342L805.53,342L811.41,342L812.25,18L813.09,342L813.93,18L814.77,342L815.62,342L818.14,342L818.98,18L819.82,342L820.66,342L821.5,342L822.34,18L823.18,342L824.02,342L831.59,342L832.43,18L833.27,342L834.11,342L838.32,342L839.16,18L840,18" style="vector-effect: non-scaling-stroke; fill: none; stroke: rgb(99, 110, 250); stroke-opacity: 1; stroke-width: 2px; opacity: 1;"/></g><g class="points"/><g class="text"/></g></g></g><g class="overplot"/><path class="xlines-above crisp" d="M0,0" style="fill: none;"/><path class="ylines-above crisp" d="M0,0" style="fill: none;"/><g class="overlines-above"/><g class="xaxislayer-above"><g class="xtick"><text text-anchor="middle" x="0" y="433" transform="translate(163.24,0)" style="font-family: 'Open Sans', verdana, arial, sans-serif; font-size: 12px; fill: rgb(42, 63, 95); fill-opacity: 1; white-space: pre; opacity: 1;">100</text></g><g class="xtick"><text text-anchor="middle" x="0" y="433" style="font-family: 'Open Sans', verdana, arial, sans-serif; font-size: 12px; fill: rgb(42, 63, 95); fill-opacity: 1; white-space: pre; opacity: 1;" transform="translate(247.33,0)">200</text></g><g class="xtick"><text text-anchor="middle" x="0" y="433" style="font-family: 'Open Sans', verdana, arial, sans-serif; font-size: 12px; fill: rgb(42, 63, 95); fill-opacity: 1; white-space: pre; opacity: 1;" transform="translate(331.40999999999997,0)">300</text></g><g class="xtick"><text text-anchor="middle" x="0" y="433" style="font-family: 'Open Sans', verdana, arial, sans-serif; font-size: 12px; fill: rgb(42, 63, 95); fill-opacity: 1; white-space: pre; opacity: 1;" transform="translate(415.5,0)">400</text></g><g class="xtick"><text text-anchor="middle" x="0" y="433" style="font-family: 'Open Sans', verdana, arial, sans-serif; font-size: 12px; fill: rgb(42, 63, 95); fill-opacity: 1; white-space: pre; opacity: 1;" transform="translate(499.58,0)">500</text></g><g class="xtick"><text text-anchor="middle" x="0" y="433" style="font-family: 'Open Sans', verdana, arial, sans-serif; font-size: 12px; fill: rgb(42, 63, 95); fill-opacity: 1; white-space: pre; opacity: 1;" transform="translate(583.6600000000001,0)">600</text></g><g class="xtick"><text text-anchor="middle" x="0" y="433" style="font-family: 'Open Sans', verdana, arial, sans-serif; font-size: 12px; fill: rgb(42, 63, 95); fill-opacity: 1; white-space: pre; opacity: 1;" transform="translate(667.75,0)">700</text></g><g class="xtick"><text text-anchor="middle" x="0" y="433" style="font-family: 'Open Sans', verdana, arial, sans-serif; font-size: 12px; fill: rgb(42, 63, 95); fill-opacity: 1; white-space: pre; opacity: 1;" transform="translate(751.83,0)">800</text></g><g class="xtick"><text text-anchor="middle" x="0" y="433" style="font-family: 'Open Sans', verdana, arial, sans-serif; font-size: 12px; fill: rgb(42, 63, 95); fill-opacity: 1; white-space: pre; opacity: 1;" transform="translate(835.92,0)">900</text></g><g class="xtick"><text text-anchor="middle" x="0" y="433" style="font-family: 'Open Sans', verdana, arial, sans-serif; font-size: 12px; fill: rgb(42, 63, 95); fill-opacity: 1; white-space: pre; opacity: 1;" transform="translate(920,0)">1000</text></g></g><g class="yaxislayer-above"><g class="ytick"><text text-anchor="end" x="79" y="4.199999999999999" transform="translate(0,402)" style="font-family: 'Open Sans', verdana, arial, sans-serif; font-size: 12px; fill: rgb(42, 63, 95); fill-opacity: 1; white-space: pre; opacity: 1;">No</text></g><g class="ytick"><text text-anchor="end" x="79" y="4.199999999999999" transform="translate(0,78)" style="font-family: 'Open Sans', verdana, arial, sans-serif; font-size: 12px; fill: rgb(42, 63, 95); fill-opacity: 1; white-space: pre; opacity: 1;">Yes</text></g></g><g class="overaxes-above"/></g></g><g class="polarlayer"/><g class="smithlayer"/><g class="ternarylayer"/><g class="geolayer"/><g class="funnelarealayer"/><g class="pielayer"/><g class="iciclelayer"/><g class="treemaplayer"/><g class="sunburstlayer"/><g class="glimages"/><defs id="topdefs-8e14be"><g class="clips"/></defs><g class="layer-above"><g class="imagelayer"/><g class="shapelayer"/></g><g class="infolayer"><g class="g-gtitle"/><g class="g-xtitle"><text class="xtitle" x="500" y="460.3" text-anchor="middle" style="font-family: 'Open Sans', verdana, arial, sans-serif; font-size: 14px; fill: rgb(42, 63, 95); opacity: 1; font-weight: normal; white-space: pre;">Rank</text></g><g class="g-ytitle"><text class="ytitle" transform="rotate(-90,33.403125,240)" x="33.403125" y="240" text-anchor="middle" style="font-family: 'Open Sans', verdana, arial, sans-serif; font-size: 14px; fill: rgb(42, 63, 95); opacity: 1; font-weight: normal; white-space: pre;">Ranked2020</text></g></g></svg>